<!-- Generated by IcoMoon.io -->
<svg version="1.1" xmlns="http://www.w3.org/2000/svg" width="32" height="32" viewBox="0 0 32 32">
<title>birthday-cake</title>
<path d="M8.448 5.744c1.052 0 1.905-0.853 1.905-1.905 0-0.701-0.846-2.276-1.41-3.249-0.22-0.38-0.769-0.38-0.989 0-0.564 0.973-1.41 2.548-1.41 3.249 0 1.052 0.853 1.905 1.905 1.905z"></path>
<path d="M16 5.744c1.052 0 1.905-0.853 1.905-1.905 0-0.701-0.846-2.276-1.41-3.249-0.22-0.38-0.769-0.38-0.989 0-0.564 0.973-1.41 2.548-1.41 3.249 0 1.052 0.853 1.905 1.905 1.905z"></path>
<path d="M23.552 5.744c1.052 0 1.905-0.853 1.905-1.905 0-0.701-0.846-2.276-1.41-3.249-0.22-0.38-0.769-0.38-0.989 0-0.564 0.973-1.41 2.548-1.41 3.249 0 1.052 0.853 1.905 1.905 1.905z"></path>
<path d="M7.399 7.309c-0.466 0-0.844 0.378-0.844 0.844v6.808h3.784v-6.808c0-0.466-0.378-0.844-0.844-0.844h-2.097z"></path>
<path d="M14.951 7.309c-0.466 0-0.844 0.378-0.844 0.844v6.808h3.784v-6.808c0-0.466-0.378-0.844-0.844-0.844h-2.097z"></path>
<path d="M22.503 7.309c-0.466 0-0.844 0.378-0.844 0.844v6.808h3.784v-6.808c0-0.466-0.378-0.844-0.844-0.844h-2.097z"></path>
<path d="M4.141 22.256c0.153 0 0.309-0.021 0.464-0.067l2.367-0.701c0.774-0.229 1.58-0.343 2.387-0.343s1.613 0.114 2.387 0.343l1.868 0.553c0.774 0.229 1.58 0.343 2.387 0.343s1.613-0.114 2.387-0.343l1.868-0.553c0.774-0.229 1.58-0.343 2.387-0.343s1.613 0.114 2.387 0.343l2.367 0.701c0.155 0.046 0.311 0.067 0.464 0.067 0.757 0 1.424-0.53 1.424-1.234v-2.417c0-0.801-0.751-1.451-1.678-1.451h-23.211c-0.927 0-1.678 0.65-1.678 1.451v2.417c0 0.704 0.667 1.234 1.424 1.234z"></path>
<path d="M31.063 29.82h-2.559v-5.749c-0.211 0.039-0.426 0.060-0.644 0.060-0.337 0-0.672-0.049-0.996-0.145l-2.367-0.701c-0.597-0.177-1.221-0.266-1.855-0.266s-1.258 0.090-1.855 0.266l-1.868 0.553c-0.943 0.279-1.925 0.421-2.919 0.421s-1.976-0.142-2.919-0.421l-1.868-0.553c-0.597-0.177-1.221-0.266-1.855-0.266s-1.258 0.090-1.855 0.266l-2.367 0.701c-0.324 0.096-0.659 0.145-0.996 0.145-0.218 0-0.433-0.021-0.644-0.060v5.749h-2.559c-0.518 0-0.938 0.42-0.938 0.938s0.42 0.938 0.938 0.938h30.125c0.518 0 0.937-0.42 0.937-0.938s-0.42-0.938-0.938-0.938z"></path>
</svg>
