<svg id="Capa_1" enable-background="new 0 0 512.022 512.022" height="512" viewBox="0 0 512.022 512.022" width="512" xmlns="http://www.w3.org/2000/svg"><g><ellipse cx="256.022" cy="256.001" fill="#f6ee86" rx="248.5" ry="243.107"/><path d="m422.855 436.177c-345.013 21.064-374.995-245.971-234.552-414.149-104.333 28.841-180.781 122.671-180.781 233.973 0 134.264 111.257 243.108 248.5 243.108 64.209-.001 122.732-23.827 166.833-62.932z" fill="#eed076"/><g><g><g><g><ellipse cx="113.948" cy="304.822" fill="#e7889d" rx="52.423" ry="41.747"/></g><g><ellipse cx="398.097" cy="304.822" fill="#e7889d" rx="52.423" ry="41.747"/></g></g></g></g><path d="m417.687 223.267c-1.919 0-3.839-.732-5.304-2.197-4.815-4.816-28.204-21.392-41.321-24.453-4.034-.941-6.541-4.974-5.6-9.008s4.974-6.541 9.008-5.6c17.174 4.007 42.777 22.71 48.521 28.454 2.929 2.929 2.929 7.678 0 10.606-1.465 1.466-3.385 2.198-5.304 2.198z" fill="#eed076"/><path d="m94.356 223.267c-1.919 0-3.839-.732-5.304-2.197-2.929-2.929-2.929-7.678 0-10.606 5.743-5.743 31.347-24.447 48.521-28.454 4.033-.941 8.066 1.566 9.008 5.6.941 4.034-1.565 8.067-5.6 9.008-13.117 3.061-36.506 19.637-41.321 24.453-1.465 1.464-3.385 2.196-5.304 2.196z" fill="#eed076"/><path d="m51.72 413.555c0-31.133 29.589-63.362 48.626-92.377 5.094-7.764 16.483-7.764 21.577 0 19.038 29.015 48.626 61.244 48.626 92.377 0 32.814-26.601 59.415-59.415 59.415s-59.414-26.601-59.414-59.415z" fill="#a2ddfd"/><path d="m164.803 439.065c-70.071 11.954-92.313-46.44-89.865-81.699-12.603 18.506-23.218 37.544-23.218 56.19 0 32.814 26.601 59.415 59.415 59.415 23.681-.002 44.122-13.86 53.668-33.906z" fill="#7acdf9"/><path d="m403.631 442.259c-75.749 57.46-174.5 63.118-253.322 25.495 16.789-12.169 27.74-31.924 27.74-54.199 0-34.058-30.277-66.658-49.855-96.491-8.219-12.525-26.21-12.049-34.118 0-13.15 20.042-31.702 42.031-42 64.507-60.162-93.062-46.606-216.888 36.917-295.413 3.018-2.837 3.164-7.584.326-10.602-2.837-3.018-7.584-3.164-10.602-.327-91.911 86.413-103.988 224.079-32.793 323.963-11.724 50.941 38.496 95.444 88.197 77.208 85.426 45.348 195.228 41.034 278.573-22.192 3.301-2.503 3.946-7.208 1.443-10.508-2.502-3.298-7.207-3.945-10.506-1.441zm-292.497 23.21c-28.626 0-51.915-23.289-51.915-51.914 0-28.286 28.608-59.624 47.397-88.262 2.132-3.25 6.904-3.249 9.036 0 18.796 28.645 47.397 59.979 47.397 88.262 0 28.626-23.289 51.914-51.915 51.914zm29.474-190.186c13.828 0 26.98-5.99 36.082-16.435 2.722-3.123 2.395-7.86-.727-10.582-3.125-2.721-7.86-2.396-10.582.727-6.253 7.175-15.282 11.29-24.773 11.29s-18.521-4.115-24.774-11.29c-2.722-3.123-7.46-3.448-10.582-.726-3.123 2.721-3.447 7.459-.727 10.582 9.104 10.444 22.255 16.434 36.083 16.434zm74.262 45.095c10.514-15.114 25.513-23.782 41.152-23.782s30.639 8.668 41.152 23.782c2.36 3.391 7.032 4.245 10.441 1.874 3.4-2.365 4.239-7.04 1.874-10.44-13.359-19.202-32.847-30.215-53.467-30.215s-40.107 11.013-53.467 30.215c-2.365 3.4-1.526 8.075 1.874 10.44 3.403 2.366 8.076 1.525 10.441-1.874zm41.152-314.985c-53.895 0-105.45 16.205-149.096 46.865-3.389 2.381-4.206 7.059-1.825 10.448 2.382 3.39 7.059 4.208 10.448 1.826 41.106-28.876 89.681-44.14 140.473-44.14 131.773 0 241 104.093 241 235.607 0 61.191-23.883 119.175-67.25 163.272-2.904 2.953-2.864 7.702.089 10.606 2.95 2.9 7.696 2.869 10.606-.088 46.143-46.919 71.555-108.639 71.555-173.789 0-138.902-114.944-250.607-256-250.607zm115.414 269.89c13.828 0 26.979-5.99 36.083-16.435 2.721-3.123 2.396-7.86-.727-10.582-3.123-2.723-7.859-2.397-10.582.726-6.253 7.175-15.283 11.29-24.774 11.29s-18.521-4.115-24.775-11.29c-2.723-3.123-7.46-3.448-10.582-.726-3.123 2.721-3.447 7.459-.727 10.582 9.105 10.445 22.256 16.435 36.084 16.435z"/></g></svg>